<?xml version="1.0" encoding="UTF-8" standalone="no"?>
<!-- Created with Inkscape (http://www.inkscape.org/) -->

<svg
   xmlns:dc="http://purl.org/dc/elements/1.1/"
   xmlns:cc="http://creativecommons.org/ns#"
   xmlns:rdf="http://www.w3.org/1999/02/22-rdf-syntax-ns#"
   xmlns:svg="http://www.w3.org/2000/svg"
   xmlns="http://www.w3.org/2000/svg"
   xmlns:xlink="http://www.w3.org/1999/xlink"
   xmlns:sodipodi="http://sodipodi.sourceforge.net/DTD/sodipodi-0.dtd"
   xmlns:inkscape="http://www.inkscape.org/namespaces/inkscape"
   width="113.40516mm"
   height="113.40516mm"
   viewBox="0 0 401.82931 401.82931"
   id="svg2"
   version="1.1"
   inkscape:version="0.92.1 r15371"
   inkscape:export-filename="/home/eric/projects/catbnb/catbnb-logo.png"
   inkscape:export-xdpi="33.596355"
   inkscape:export-ydpi="33.596355"
   sodipodi:docname="catbnb-logo-orange.svg">
  <defs
     id="defs4" />
  <sodipodi:namedview
     id="base"
     pagecolor="#ffffff"
     bordercolor="#666666"
     borderopacity="1.0"
     inkscape:pageopacity="0.0"
     inkscape:pageshadow="2"
     inkscape:zoom="0.32945881"
     inkscape:cx="-1261.7977"
     inkscape:cy="-308.54265"
     inkscape:document-units="px"
     inkscape:current-layer="layer5"
     showgrid="false"
     fit-margin-top="0"
     fit-margin-left="0"
     fit-margin-right="0"
     fit-margin-bottom="0"
     inkscape:window-width="1920"
     inkscape:window-height="1174"
     inkscape:window-x="1366"
     inkscape:window-y="0"
     inkscape:window-maximized="1" />
  <metadata
     id="metadata7">
    <rdf:RDF>
      <cc:Work
         rdf:about="">
        <dc:format>image/svg+xml</dc:format>
        <dc:type
           rdf:resource="http://purl.org/dc/dcmitype/StillImage" />
        <dc:title></dc:title>
      </cc:Work>
    </rdf:RDF>
  </metadata>
  <g
     inkscape:groupmode="layer"
     id="layer2"
     inkscape:label="Layer 2"
     style="display:none"
     transform="translate(-139.52458,-373.45945)" />
  <g
     inkscape:groupmode="layer"
     id="layer5"
     inkscape:label="Layer 5"
     style="display:inline"
     transform="translate(0.47068018,-0.08372754)">
    <path
       inkscape:connector-curvature="0"
       style="display:inline;fill:#ff9018;fill-opacity:1;fill-rule:evenodd;stroke:#ffffff;stroke-width:0.80000001;stroke-linejoin:round;stroke-miterlimit:4;stroke-dasharray:none;stroke-opacity:1"
       d="M 99.929321,0.48372755 C 44.52932,0.48372755 -0.07068017,45.083728 -0.07068017,100.48372 l 0,201.0293 c 0,55.4 44.60000017,100 100.00000117,100 l 201.029299,0 c 55.4,0 100,-44.6 100,-100 l 0,-201.0293 c 0,-55.399992 -44.6,-99.99999245 -100,-99.99999245 l -201.029299,0 z M 93.718381,60.339196 c 27.415309,17.09007 60.860929,44.117944 81.236329,69.761714 15.35095,-5.69369 30.60096,-6.472 45.97656,0.23828 20.35714,-25.71429 53.92774,-52.857134 81.42774,-69.999994 -9.64286,22.85714 -15.00028,61.071704 -12.85742,82.857414 0,0 23.57254,36.42969 51.42968,41.42969 -4.28571,13.57143 -25.71484,20 -25.71484,20 13.92857,3.57143 42.85742,-5.71485 42.85742,-5.71485 -5,12.14287 -22.85742,20 -22.85742,20 4.28571,2.85715 28.57227,-4.28515 28.57227,-4.28515 -4.28571,9.64286 -30,18.57031 -30,18.57031 15.71429,5.71429 31.42773,3.21484 31.42773,3.21484 -33.92858,67.14288 -110.70436,102.13313 -172.14258,101.78516 -53.7489,-0.28519 -116.54381,-34.93654 -162.21289,-101.78516 0,0 15.71344,2.49945 31.42773,-3.21484 0,0 -25.71429,-8.92745 -30,-18.57031 0,0 24.28657,7.14231 28.57227,4.28515 0,0 -17.85742,-7.85713 -22.85742,-20 0,0 28.92886,9.28628 42.85742,5.71485 0,0 -21.42913,-6.42857 -25.71484,-20 27.85714,-5 51.42969,-41.42969 51.42969,-41.42969 2.14285,-21.78571 -3.21457,-60.000274 -12.857429,-82.857414 z"
       id="rect8119" />
  </g>
  <g
     inkscape:groupmode="layer"
     id="layer4"
     inkscape:label="Layer 4"
     transform="translate(-139.52458,-373.45945)"
     style="display:inline">
    <path
       style="display:inline;fill:#ff9018;fill-rule:evenodd;stroke:#ffffff;stroke-width:1px;stroke-linecap:butt;stroke-linejoin:miter;stroke-opacity:1;fill-opacity:1"
       d="m 310.50008,599.75365 c 25.75889,-5.05076 55.05332,-4.04061 55.05332,-4.04061 l -18.68783,29.7995 z"
       id="path8087-5"
       inkscape:connector-curvature="0" />
    <path
       style="display:inline;opacity:1;fill:#ff9018;fill-rule:evenodd;stroke:#ffffff;stroke-width:4.5999999;stroke-linecap:round;stroke-linejoin:miter;stroke-miterlimit:4;stroke-dasharray:none;stroke-opacity:1;fill-opacity:1"
       d="m 316.05592,654.80697 c 14.62456,16.6879 48.1506,8.24958 53.53808,-0.50508"
       id="path8089-6"
       inkscape:connector-curvature="0"
       sodipodi:nodetypes="cc" />
    <ellipse
       style="display:inline;fill:#ff9018;fill-opacity:1;fill-rule:evenodd;stroke:#ffffff;stroke-width:0.73338473;stroke-linejoin:round;stroke-miterlimit:4;stroke-dasharray:none;stroke-opacity:1"
       id="path8095-2"
       cx="276.40744"
       cy="563.13556"
       rx="12.912752"
       ry="12.912753" />
    <ellipse
       style="display:inline;fill:#ff9018;fill-opacity:1;fill-rule:evenodd;stroke:#ffffff;stroke-width:0.74032438;stroke-linejoin:round;stroke-miterlimit:4;stroke-dasharray:none;stroke-opacity:1"
       id="path8095-3-9"
       cx="397.62573"
       cy="558.84241"
       rx="13.16182"
       ry="12.909283" />
  </g>
  <g
     inkscape:label="Layer 1"
     inkscape:groupmode="layer"
     id="layer1"
     style="display:none"
     transform="translate(-139.52458,-373.45945)">
    <image
       sodipodi:absref="/home/eric/Downloads/logo sketch.jpg"
       xlink:href="/home/eric/Downloads/logo sketch.jpg"
       width="718.02472"
       height="957.36633"
       preserveAspectRatio="none"
       id="image8076"
       x="-14.120507"
       y="45.10461" />
  </g>
</svg>
